<?xml version="1.0" encoding="UTF-8"?>
<svg version="1.1" xmlns="http://www.w3.org/2000/svg" width="500" height="500">
<path d="M0 0 C165 0 330 0 500 0 C500 165 500 330 500 500 C335 500 170 500 0 500 C0 335 0 170 0 0 Z " fill="#FEFEFE" transform="translate(0,0)"/>
<path d="M0 0 C45.54 0 91.08 0 138 0 C138.185625 13.426875 138.37125 26.85375 138.5625 40.6875 C138.68540405 47.00974731 138.68540405 47.00974731 138.81079102 53.4597168 C138.85144043 58.66955566 138.85144043 58.66955566 138.85899353 61.12068176 C138.87267276 62.80616238 138.90403169 64.49156363 138.95018005 66.1764679 C139.24189217 77.40376493 138.28072757 84.66381851 131.359375 93.71101379 C129.03071351 95.97020279 127.83772976 96.81254287 124.68359375 97.3125 C122.56933594 97.24169922 122.56933594 97.24169922 120.4375 97 C112.48384761 96.75322154 112.48384761 96.75322154 105.515625 100.19140625 C102.33118557 103.99139454 100.7705838 108.40754827 99 113 C104.61 113 110.22 113 116 113 C114.2921565 117.26960876 112.32995164 121.17599603 110.125 125.1875 C102.8805793 137.83992015 102.8805793 137.83992015 102 152 C104.39043802 156.96475588 106.94093524 158.9303826 112 161 C112 161.33 112 161.66 112 162 C111.09636719 162.03738281 110.19273437 162.07476562 109.26171875 162.11328125 C108.08222656 162.17902344 106.90273437 162.24476563 105.6875 162.3125 C103.92986328 162.39951172 103.92986328 162.39951172 102.13671875 162.48828125 C99.12169028 162.76792186 99.12169028 162.76792186 97.3359375 164.0625 C95.3035585 167.01004382 95.51959183 170.05060455 95.48828125 173.51171875 C95.46135445 174.60405571 95.46135445 174.60405571 95.43388367 175.71846008 C95.37975787 178.04141471 95.3458792 180.36416366 95.3125 182.6875 C95.27932875 184.26370051 95.24483927 185.83987388 95.20898438 187.41601562 C95.1240307 191.27719536 95.05723124 195.13831387 95 199 C92.86164853 195.79247279 91.78609594 192.88315023 90.50390625 189.25 C90.02303218 187.90616205 89.54190461 186.56241478 89.06054688 185.21875 C88.30906252 183.10662912 87.5602623 180.99364046 86.81616211 178.87890625 C86.0945006 176.83320658 85.36240591 174.79147956 84.62890625 172.75 C84.19650635 171.52796875 83.76410645 170.3059375 83.31860352 169.046875 C82.12138248 166.28047645 81.43482084 164.7206422 79 163 C76.25527967 162.6741562 73.80270623 162.53551498 71.0625 162.5625 C70.34642578 162.54251953 69.63035156 162.52253906 68.89257812 162.50195312 C65.5964651 162.50500791 63.5116118 162.5919435 60.89282227 164.68066406 C58.76462178 167.2884165 57.91851969 169.39718131 56.9296875 172.60546875 C56.59066406 173.67087891 56.25164062 174.73628906 55.90234375 175.83398438 C55.56332031 176.94064453 55.22429687 178.04730469 54.875 179.1875 C54.19159675 181.39141196 53.50182994 183.59336416 52.8046875 185.79296875 C52.50546387 186.7677417 52.20624023 187.74251465 51.89794922 188.74682617 C51 191 51 191 49 192 C47.33753572 187.32431921 46.9245144 184.15115535 47.25 179.1875 C47.24190277 174.77450947 45.86533431 172.40742459 43 169 C36.90673089 163.07598836 30.73154129 161.80501383 22.5 161.625 C13.09806083 161.83952837 7.39354968 164.30080546 0 170 C0 167.03 0 164.06 0 161 C1.175625 160.67 2.35125 160.34 3.5625 160 C16.76754212 154.87115236 21.84390003 136.68093819 27.12866211 124.75732422 C29.00484751 120.49509612 30.86418568 116.22571089 32.71777344 111.95361328 C34.22403656 108.48393101 35.74092968 105.01898663 37.25952148 101.5546875 C38.50889511 98.70423548 39.75456461 95.85217457 41 93 C41.33 93 41.66 93 42 93 C41.97643433 94.87534424 41.97643433 94.87534424 41.95239258 96.78857422 C41.89772816 101.46640475 41.86351805 106.14420755 41.83520508 110.82226562 C41.82020116 112.83956667 41.79979145 114.85683556 41.77368164 116.87402344 C41.73692647 119.78849263 41.72018932 122.70252726 41.70703125 125.6171875 C41.69154739 126.50614716 41.67606354 127.39510681 41.66011047 128.31100464 C41.65848948 134.46422258 42.37661866 140.36220075 45 146 C48.42094242 148.28062828 49.68187222 148.21925007 53.6875 148.125 C54.68136719 148.10695313 55.67523438 148.08890625 56.69921875 148.0703125 C57.45847656 148.04710937 58.21773437 148.02390625 59 148 C59.1959375 146.83339844 59.391875 145.66679687 59.59375 144.46484375 C61.06369162 137.85916419 63.87341279 131.77725751 66.59521484 125.61352539 C67.50698635 123.54666288 68.40469162 121.47409341 69.30078125 119.40039062 C73.71467082 109.28532918 73.71467082 109.28532918 76 107 C75.7834375 108.49660156 75.7834375 108.49660156 75.5625 110.0234375 C74.28430193 119.59062518 73.73339816 129.0984986 73.625 138.75 C73.59921875 139.86810059 73.5734375 140.98620117 73.546875 142.13818359 C73.53213566 148.21539605 73.61917467 152.36499709 78 157 C81.90744153 160.13252035 84.88034637 160.3369592 89.8125 160.1875 C90.97394531 160.16042969 92.13539063 160.13335937 93.33203125 160.10546875 C94.21246094 160.07066406 95.09289062 160.03585937 96 160 C95.71705078 159.45907715 95.43410156 158.9181543 95.14257812 158.36083984 C92.33224001 152.60804315 91.35645099 147.99420716 91.5 141.625 C91.51812744 140.28248169 91.51812744 140.28248169 91.53662109 138.9128418 C92.12737738 117.92667233 96.91888399 97.2813475 102 77 C102.23396484 76.05463379 102.46792969 75.10926758 102.70898438 74.13525391 C103.3581972 71.52491609 104.01885422 68.91792176 104.6875 66.3125 C104.87755615 65.56484375 105.0676123 64.8171875 105.26342773 64.046875 C106.46975675 59.48414689 108.04562216 55.29737836 110 51 C103.08587621 48.94349101 103.08587621 48.94349101 96 49 C83.22419004 56.9547496 76.53732997 76.15760202 69.49633789 89.09594727 C69.15650375 89.71790985 68.81666962 90.33987244 68.46653748 90.98068237 C67.53104736 92.69322667 66.59867848 94.4074749 65.66650391 96.12182617 C64.24595927 98.57521039 62.76217081 100.78537993 61 103 C61.02356567 101.59476074 61.02356567 101.59476074 61.04760742 100.16113281 C61.0992666 96.62738314 61.13660422 93.09404473 61.16479492 89.56005859 C61.17972112 88.04143879 61.20006959 86.52286083 61.22631836 85.00439453 C61.6415017 67.3656408 61.6415017 67.3656408 54 52 C50.07690239 48.07690239 46.60290777 47.652313 41.25 47.4375 C31.58551296 47.74269433 24.65925577 51.57377746 17.6953125 58.12890625 C12.77810892 63.55595813 11.18727331 69.00081702 11.4921875 76.30859375 C12.35686171 80.89136708 14.40155087 84.05649872 18 87 C20.76118337 88.18265739 22.98505326 88.58414528 26 89 C24.03445793 95.39730337 21.57167897 101.36446112 18.65625 107.3828125 C18.24588501 108.24131805 17.83552002 109.09982361 17.41271973 109.98434448 C16.11343674 112.70030551 14.80706615 115.41277734 13.5 118.125 C12.1943042 120.84499845 10.89012613 123.56571421 9.58728027 126.28707886 C8.78007203 127.97203791 7.97101603 129.65611347 7.15979004 131.33914185 C4.99270377 135.85044901 2.93520618 140.38427176 1 145 C0.67 145 0.34 145 0 145 C0 97.15 0 49.3 0 0 Z " fill="#E9955D" transform="translate(112,115)"/>
<path d="M0 0 C0.12117187 0.71027344 0.24234375 1.42054688 0.3671875 2.15234375 C0.53476563 3.07144531 0.70234375 3.99054688 0.875 4.9375 C1.03742188 5.85402344 1.19984375 6.77054687 1.3671875 7.71484375 C1.68042969 8.84599609 1.68042969 8.84599609 2 10 C2.99 10.495 2.99 10.495 4 11 C4 26.84 4 42.68 4 59 C-41.21 59 -86.42 59 -133 59 C-133 41.18 -133 23.36 -133 5 C-128.05 7.97 -128.05 7.97 -123 11 C-113.72395951 13.31901012 -104.78589019 12.54744102 -96 9 C-94.6719987 8.64602056 -93.33972242 8.30664758 -92 8 C-91.34 8.99 -90.68 9.98 -90 11 C-87.2933372 11.36048783 -84.89487473 11.50964337 -82.1875 11.5 C-81.47529297 11.52835937 -80.76308594 11.55671875 -80.02929688 11.5859375 C-75.98254345 11.60091161 -74.21777066 11.17767779 -71.05078125 8.59375 C-69.01531349 6.20057128 -69.01531349 6.20057128 -68 4 C-64.7 4 -61.4 4 -58 4 C-57.319375 5.4540625 -57.319375 5.4540625 -56.625 6.9375 C-55.34213779 10.07079582 -55.34213779 10.07079582 -53 11 C-50.54255941 11.1107039 -48.11429624 11.1640901 -45.65625 11.16796875 C-44.93135376 11.17129715 -44.20645752 11.17462555 -43.45959473 11.17805481 C-41.92635737 11.18311925 -40.39310899 11.18546328 -38.85986328 11.18530273 C-36.50925657 11.18749138 -34.15911751 11.20565751 -31.80859375 11.22460938 C-30.32031411 11.22754292 -28.83203223 11.22952798 -27.34375 11.23046875 C-26.28589294 11.24124702 -26.28589294 11.24124702 -25.20666504 11.25224304 C-21.15392138 11.35037944 -21.15392138 11.35037944 -18 9 C-17.54188325 7.02764667 -17.54188325 7.02764667 -17.375 4.875 C-17.189375 2.956875 -17.189375 2.956875 -17 1 C-15.51886719 1.01740234 -15.51886719 1.01740234 -14.0078125 1.03515625 C-12.72648437 1.04417969 -11.44515625 1.05320312 -10.125 1.0625 C-8.21074219 1.07990234 -8.21074219 1.07990234 -6.2578125 1.09765625 C-3.7798312 1.02337624 -2.20833119 0 0 0 Z " fill="#E9945B" transform="translate(246,325)"/>
<path d="M0 0 C4.78981445 3.66879405 6.41925967 8.25060945 7.7734375 13.96875 C8.13798639 17.20967234 8.14941219 20.39778787 8.1015625 23.65625 C8.09968933 24.55762695 8.09781616 25.45900391 8.09588623 26.38769531 C8.08920264 28.2869845 8.07536245 30.1862608 8.0546875 32.08544922 C8.02382058 34.93340482 8.01373064 37.78080052 8.0078125 40.62890625 C7.95984399 51.77213752 7.56576992 62.85398454 6.7734375 73.96875 C7.19705566 72.89077148 7.62067383 71.81279297 8.05712891 70.70214844 C14.96194824 53.21914804 23.56136849 36.71302448 33.0859375 20.53125 C33.4241452 19.95280334 33.76235291 19.37435669 34.11080933 18.77838135 C41.55290459 6.09436413 41.55290459 6.09436413 46.7734375 0.96875 C49.67775733 0.40096826 51.78642716 0.60824875 54.7734375 0.96875 C53.80332177 7.10856138 52.52835243 13.09386628 50.8984375 19.09375 C43.2653298 47.31742324 38.64698184 74.68783496 39.7734375 103.96875 C34.125 104.25 34.125 104.25 30.9609375 101.71875 C24.86776645 94.05876354 27.14620832 80.16897884 27.7734375 70.96875 C29.44435957 57.72640843 32.64904182 44.63841279 36.07421875 31.75 C36.85470997 29.12344241 36.85470997 29.12344241 36.7734375 26.96875 C29.84786549 39.03137024 23.51900863 51.27926077 17.8359375 63.96875 C17.30524658 65.14719482 16.77455566 66.32563965 16.2277832 67.53979492 C13.06200847 74.69769919 10.28552756 81.90205155 7.75170898 89.30078125 C6.7734375 91.96875 6.7734375 91.96875 5.7734375 92.96875 C2.8984375 93.34375 2.8984375 93.34375 -0.2265625 92.96875 C-3.23986288 89.15888859 -3.61329181 86.11686447 -3.65893555 81.3425293 C-3.67422302 80.37583061 -3.67422302 80.37583061 -3.68981934 79.38960266 C-3.71984832 77.27396844 -3.72919919 75.15878771 -3.73828125 73.04296875 C-3.75513554 71.57036344 -3.7732868 70.09777245 -3.79267883 68.62519836 C-3.840104 64.76028926 -3.86996145 60.89543823 -3.89611816 57.03033447 C-3.92596169 53.08195529 -3.97247892 49.13377606 -4.01757812 45.18554688 C-4.10352596 37.44671396 -4.17090877 29.70786637 -4.2265625 21.96875 C-4.44016922 22.47921875 -4.65377594 22.9896875 -4.87385559 23.515625 C-22.96157219 66.72289256 -22.96157219 66.72289256 -29.4765625 81.15625 C-29.8681958 82.04119141 -30.2598291 82.92613281 -30.66333008 83.83789062 C-34.02348252 91.15763233 -38.17628909 99.62736693 -45.2265625 103.96875 C-46.2165625 103.96875 -47.2065625 103.96875 -48.2265625 103.96875 C-47.58905173 99.7992941 -46.18972619 96.43852829 -44.375 92.640625 C-43.93889153 91.72049118 -43.93889153 91.72049118 -43.49397278 90.7817688 C-42.86428745 89.45414362 -42.23220713 88.12765227 -41.59799194 86.80218506 C-39.88242583 83.2151066 -38.186115 79.61893428 -36.48828125 76.0234375 C-36.13604996 75.2784903 -35.78381866 74.53354309 -35.4209137 73.76602173 C-30.08227174 62.45455509 -24.95434309 51.04640694 -19.80429077 39.64823914 C-17.92447125 35.49321141 -16.01947293 31.35067231 -14.09765625 27.21484375 C-13.62884033 26.20115723 -13.16002441 25.1874707 -12.67700195 24.14306641 C-11.82589228 22.30539692 -10.96941162 20.47020012 -10.10620117 18.63818359 C-8.15145886 14.40198687 -6.69760117 10.67153933 -6.2265625 5.96875 C-10.9938848 6.08299955 -14.25971997 6.21209063 -18.1015625 9.21875 C-22.28410372 14.63145041 -23.76085373 18.57537285 -24.4140625 25.28125 C-24.49591797 26.02181641 -24.57777344 26.76238281 -24.66210938 27.52539062 C-24.86098838 29.33869923 -25.04526077 31.15359969 -25.2265625 32.96875 C-30.06747699 31.25074718 -31.88205571 29.65776357 -34.2265625 24.96875 C-35.09067714 19.69765067 -34.52071083 16.88614961 -31.7265625 12.34375 C-28.49733559 7.9264113 -24.82234826 4.88315072 -20.2265625 1.96875 C-19.3190625 1.35 -18.4115625 0.73125 -17.4765625 0.09375 C-11.86210888 -1.84971471 -5.52866346 -2.56064413 0 0 Z " fill="#214F9E" transform="translate(161.2265625,167.03125)"/>
<path d="M0 0 C2.875 2 2.875 2 5 4 C3.90060981 6.76941623 2.78003298 9.52729236 1.6328125 12.27734375 C-1.84785564 20.72653039 -4.72111111 29.13958723 -7 38 C-7.24282715 38.93714844 -7.4856543 39.87429687 -7.73583984 40.83984375 C-8.56062209 44.03718472 -9.37616396 47.23672153 -10.1875 50.4375 C-10.44982422 51.46866943 -10.71214844 52.49983887 -10.98242188 53.56225586 C-13.0146831 61.70257636 -14.16890319 69.36449007 -14.125 77.75 C-14.12886719 78.50410156 -14.13273437 79.25820312 -14.13671875 80.03515625 C-14.13095167 83.28202205 -14.03370978 85.89887065 -13 89 C-9.28217213 89 -7.06099276 88.87930055 -4.15234375 86.46875 C0.07695483 81.7839885 3.17560736 76.62275402 6 71 C6.66 71 7.32 71 8 71 C9.0356774 73.6605126 9.08841771 74.76508265 8.06640625 77.48046875 C3.62124383 85.4817611 -1.74883405 95.10901064 -11 98 C-13.9830783 98.51391646 -15.88252231 98.39587018 -19 98 C-23.60843747 94.72288891 -25.95824858 90.49361099 -27 85 C-27.17711636 82.31281273 -27.29358913 79.68751421 -27.3125 77 C-27.31805908 76.33572998 -27.32361816 75.67145996 -27.3293457 74.98706055 C-27.25557803 69.85547848 -26.29990898 66.19963593 -25 61 C-31.27 60.67 -37.54 60.34 -44 60 C-55.74584473 82.14369443 -55.74584473 82.14369443 -66 105 C-68.65813788 104.63336029 -69.78207433 104.23434651 -71.63623047 102.24047852 C-74.06763353 98.24603063 -73.03524938 94.39080428 -72 90 C-70.57848534 86.34888688 -68.78491409 82.97929565 -66.875 79.5625 C-66.38088623 78.64960205 -65.88677246 77.7367041 -65.37768555 76.79614258 C-61.84907963 70.34188034 -58.10226104 64.10781088 -54 58 C-60.27 58 -66.54 58 -73 58 C-70.09745949 53.16243249 -68.8936608 51.42935304 -64 49 C-60.40625 49.27734375 -60.40625 49.27734375 -56.5 49.9375 C-52.41155205 50.26227222 -49.33191172 50.11650081 -46.10400391 47.41064453 C-42.11066172 42.84203615 -38.93103981 37.70213228 -35.69677734 32.58300781 C-33.09961412 28.62934063 -30.14726282 25.00829984 -27.125 21.375 C-26.58383545 20.71781982 -26.0426709 20.06063965 -25.48510742 19.38354492 C-23.99729793 17.58285142 -22.50044851 15.790165 -21 14 C-19.83984375 12.60587891 -19.83984375 12.60587891 -18.65625 11.18359375 C-7.77278234 -1.52076176 -7.77278234 -1.52076176 0 0 Z " fill="#214F9E" transform="translate(290,166)"/>
<path d="M0 0 C6.75307607 6.39594224 11.04593415 16.22119759 11.48828125 25.453125 C11.5074471 26.86445861 11.51090396 28.27607838 11.5 29.6875 C11.49581055 30.43402832 11.49162109 31.18055664 11.48730469 31.94970703 C11.36140052 38.15249656 10.27598404 43.58614386 8.1875 49.4375 C7.9090625 50.33726562 7.630625 51.23703125 7.34375 52.1640625 C1.73692622 69.32287665 -11.11641023 83.8287866 -27.046875 92.12109375 C-36.00168484 96.42311645 -43.9759218 98.79943452 -53.875 98.875 C-54.63876953 98.90787109 -55.40253906 98.94074219 -56.18945312 98.97460938 C-62.25790602 99.03171201 -65.18629845 97.32645827 -69.8125 93.4375 C-69.24780121 85.39271416 -67.17327134 78.0155998 -64.875 70.3125 C-64.47555247 68.95616989 -64.07622199 67.59980529 -63.67700195 66.2434082 C-60.7431913 56.33133333 -57.66060826 46.4668865 -54.5 36.625 C-54.29376007 35.98036804 -54.08752014 35.33573608 -53.87503052 34.67156982 C-46.55712137 11.86600487 -46.55712137 11.86600487 -40.8125 5.4375 C-37.11542754 4.25443681 -35.49170064 4.21109979 -31.8125 5.4375 C-32.38743115 9.53661596 -33.3083514 13.10069055 -34.8515625 16.9375 C-35.26374023 17.97801514 -35.67591797 19.01853027 -36.10058594 20.09057617 C-36.54176758 21.19506104 -36.98294922 22.2995459 -37.4375 23.4375 C-44.65604214 41.88960851 -50.26787403 60.52804768 -55.11523438 79.72802734 C-56.2949298 84.31215195 -57.55241717 88.87492261 -58.8125 93.4375 C-44.25496907 93.2006171 -33.41700678 89.61063701 -22.8125 79.4375 C-8.35737308 64.34229365 -1.15023656 44.34274638 -1.54296875 23.6484375 C-1.88742183 16.01617179 -4.12409544 10.64864033 -9.75 5.4375 C-16.88868318 -0.18371818 -24.90568718 -1.3035692 -33.8125 -0.5625 C-41.83137021 0.6987653 -48.20854892 3.44987592 -53.8125 9.4375 C-57.93607565 15.4445467 -58.34722612 21.32267187 -57.8125 28.4375 C-61.5193691 28.64309106 -62.5053028 28.66277794 -65.625 26.375 C-67.8125 23.4375 -67.8125 23.4375 -68.375 20.0625 C-67.03721768 11.44123616 -61.55351063 6.48794172 -54.8125 1.4375 C-39.52210417 -8.39204017 -15.24249232 -11.40707126 0 0 Z " fill="#224F9F" transform="translate(376.8125,172.5625)"/>
<path d="M0 0 C5.63486944 0.0996734 5.63486944 0.0996734 7.875 1.78515625 C9.25725043 3.96891995 10.22778168 6.18494428 11.25 8.5625 C11.93057987 9.93120268 12.62019528 11.29543176 13.31640625 12.65625 C15.3351491 16.6057347 17.30128092 20.57802228 19.25 24.5625 C23.22988783 20.07117799 25.78100144 15.04967598 28.5 9.75 C28.95890625 8.86634766 29.4178125 7.98269531 29.890625 7.07226562 C31.01534639 4.90483379 32.13495706 2.73492224 33.25 0.5625 C35.22909398 0.53563447 37.20828971 0.51616625 39.1875 0.5 C40.28964844 0.48839844 41.39179688 0.47679687 42.52734375 0.46484375 C45.25 0.5625 45.25 0.5625 46.25 1.5625 C46.34846967 3.12249048 46.37798618 4.68690544 46.37939453 6.25 C46.38254669 7.24773437 46.38569885 8.24546875 46.38894653 9.2734375 C46.3869223 10.35882813 46.38489807 11.44421875 46.3828125 12.5625 C46.38376923 13.66851562 46.38472595 14.77453125 46.38571167 15.9140625 C46.38639367 18.25781308 46.38453804 20.60156553 46.38037109 22.9453125 C46.37502314 26.54691788 46.38031547 30.14839853 46.38671875 33.75 C46.38605797 36.02083361 46.38477682 38.29166714 46.3828125 40.5625 C46.38483673 41.64789063 46.38686096 42.73328125 46.38894653 43.8515625 C46.38421829 45.34816406 46.38421829 45.34816406 46.37939453 46.875 C46.37859894 47.75800781 46.37780334 48.64101563 46.37698364 49.55078125 C46.25 51.5625 46.25 51.5625 45.25 52.5625 C43.25200428 52.66123816 41.25042842 52.69221799 39.25 52.6875 C38.156875 52.69007813 37.06375 52.69265625 35.9375 52.6953125 C33.25 52.5625 33.25 52.5625 32.25 51.5625 C32.15089905 50.05990523 32.11920299 48.55273289 32.1171875 47.046875 C32.11525391 45.66435547 32.11525391 45.66435547 32.11328125 44.25390625 C32.11714844 43.28324219 32.12101562 42.31257813 32.125 41.3125 C32.11919922 39.87970703 32.11919922 39.87970703 32.11328125 38.41796875 C32.11457031 37.49113281 32.11585938 36.56429687 32.1171875 35.609375 C32.11831543 34.76213867 32.11944336 33.91490234 32.12060547 33.04199219 C32.25506935 30.46535976 32.68409972 28.07673818 33.25 25.5625 C32.69570312 26.70589844 32.14140625 27.84929687 31.5703125 29.02734375 C30.83885848 30.51838463 30.10707033 32.00926162 29.375 33.5 C29.01019531 34.25474609 28.64539063 35.00949219 28.26953125 35.78710938 C27.91503906 36.50576172 27.56054688 37.22441406 27.1953125 37.96484375 C26.87062988 38.62991943 26.54594727 39.29499512 26.21142578 39.98022461 C25.25 41.5625 25.25 41.5625 23.25 42.5625 C18.21197465 43.67257338 18.21197465 43.67257338 15.25 42.5625 C11.17449333 37.49779268 8.55901482 31.60404847 6.25 25.5625 C6.41226074 26.2834082 6.57452148 27.00431641 6.74169922 27.74707031 C7.2278127 30.43960667 7.37917651 32.87823043 7.3828125 35.609375 C7.38474609 36.99962891 7.38474609 36.99962891 7.38671875 38.41796875 C7.38285156 39.37316406 7.37898437 40.32835937 7.375 41.3125 C7.37886719 42.28316406 7.38273438 43.25382812 7.38671875 44.25390625 C7.38542969 45.17558594 7.38414062 46.09726562 7.3828125 47.046875 C7.38168457 47.88959961 7.38055664 48.73232422 7.37939453 49.60058594 C7.25 51.5625 7.25 51.5625 6.25 52.5625 C4.44072719 52.68737758 2.62603893 52.73820846 0.8125 52.75 C-0.17621094 52.76417969 -1.16492188 52.77835937 -2.18359375 52.79296875 C-4.75 52.5625 -4.75 52.5625 -6.75 50.5625 C-6.99723816 48.4684906 -6.99723816 48.4684906 -6.99291992 45.85327148 C-6.99599655 44.87563339 -6.99907318 43.8979953 -7.00224304 42.89073181 C-6.99505753 41.83237625 -6.98787201 40.77402069 -6.98046875 39.68359375 C-6.98001053 38.60118912 -6.97955231 37.51878448 -6.9790802 36.40357971 C-6.97605559 34.11287339 -6.96816309 31.82216916 -6.95581055 29.53149414 C-6.93755785 26.01115697 -6.93530078 22.49108266 -6.93554688 18.97070312 C-6.93063175 16.74999771 -6.92480346 14.52929409 -6.91796875 12.30859375 C-6.91685593 11.24821396 -6.9157431 10.18783417 -6.91459656 9.09532166 C-6.90502678 7.63359276 -6.90502678 7.63359276 -6.89526367 6.14233398 C-6.89145187 5.28010727 -6.88764008 4.41788055 -6.88371277 3.52952576 C-6.60537599 -0.56503922 -3.50348068 0.20080926 0 0 Z " fill="#204E9E" transform="translate(217.75,280.4375)"/>
<path d="M0 0 C3.65458403 0.07404997 5.57830134 0.11850588 8.37890625 2.52734375 C10.23318191 5.18184046 11.77194496 7.90197625 13.3125 10.75 C14.70341747 12.94062903 16.09938679 15.12805738 17.5 17.3125 C20.56156185 22.32989457 23.09932154 27.30926962 25.3125 32.75 C24.82330078 31.40035156 24.82330078 31.40035156 24.32421875 30.0234375 C22.76564925 24.562254 23.06122653 19.00720443 23.125 13.375 C23.12564453 12.27027344 23.12628906 11.16554688 23.12695312 10.02734375 C23.17199096 1.89050904 23.17199096 1.89050904 24.3125 0.75 C26.14365883 0.65148829 27.97869933 0.62027371 29.8125 0.625 C30.8128125 0.62242187 31.813125 0.61984375 32.84375 0.6171875 C35.3125 0.75 35.3125 0.75 36.3125 1.75 C36.41096967 3.30999048 36.44048618 4.87440544 36.44189453 6.4375 C36.44504669 7.43523437 36.44819885 8.43296875 36.45144653 9.4609375 C36.4494223 10.54632813 36.44739807 11.63171875 36.4453125 12.75 C36.44626923 13.85601562 36.44722595 14.96203125 36.44821167 16.1015625 C36.44889367 18.44531308 36.44703804 20.78906553 36.44287109 23.1328125 C36.43752314 26.73441788 36.44281547 30.33589853 36.44921875 33.9375 C36.44855797 36.20833361 36.44727682 38.47916714 36.4453125 40.75 C36.44733673 41.83539063 36.44936096 42.92078125 36.45144653 44.0390625 C36.44671829 45.53566406 36.44671829 45.53566406 36.44189453 47.0625 C36.44109894 47.94550781 36.44030334 48.82851563 36.43948364 49.73828125 C36.3125 51.75 36.3125 51.75 35.3125 52.75 C25.47074348 54.23468178 25.47074348 54.23468178 21.53515625 51.52734375 C19.8961593 49.36576807 18.63200033 47.1231312 17.3125 44.75 C16.48425163 43.43912055 15.64756133 42.13355497 14.8046875 40.83203125 C7.09942008 28.86257689 7.09942008 28.86257689 5.3125 23.75 C5.55613281 24.88501953 5.55613281 24.88501953 5.8046875 26.04296875 C6.49222766 31.06201192 6.4571734 36.0031581 6.4375 41.0625 C6.44136719 42.07634766 6.44523437 43.09019531 6.44921875 44.13476562 C6.44792969 45.09705078 6.44664062 46.05933594 6.4453125 47.05078125 C6.44418457 47.92903564 6.44305664 48.80729004 6.44189453 49.7121582 C6.3125 51.75 6.3125 51.75 5.3125 52.75 C3.29285801 52.82244053 1.27082876 52.83377188 -0.75 52.8125 C-2.40708984 52.79896484 -2.40708984 52.79896484 -4.09765625 52.78515625 C-4.95230469 52.77355469 -5.80695313 52.76195312 -6.6875 52.75 C-7.88894213 50.34711573 -7.82062026 48.83160248 -7.83276367 46.1484375 C-7.83914352 45.19404785 -7.84552338 44.2396582 -7.85209656 43.25634766 C-7.85320938 42.22300293 -7.8543222 41.1896582 -7.85546875 40.125 C-7.85879715 39.06716309 -7.86212555 38.00932617 -7.86555481 36.91943359 C-7.87062356 34.68001745 -7.87296315 32.44059375 -7.87280273 30.20117188 C-7.87499096 26.76419734 -7.89315216 23.32754276 -7.91210938 19.890625 C-7.91504288 17.7187511 -7.91702796 15.54687567 -7.91796875 13.375 C-7.92515427 12.34165527 -7.93233978 11.30831055 -7.93974304 10.24365234 C-7.93666641 9.2892627 -7.93358978 8.33487305 -7.93041992 7.3515625 C-7.93184494 6.50932129 -7.93326996 5.66708008 -7.93473816 4.79931641 C-7.37582281 0.1665591 -3.93833501 0.25695536 0 0 Z " fill="#204E9E" transform="translate(300.6875,280.25)"/>
<path d="M0 0 C4.15007935 2.80130356 6.48812006 5.65858527 7.6875 10.640625 C7.749375 11.506875 7.81125 12.373125 7.875 13.265625 C6.46274074 13.94157815 5.04497095 14.60602559 3.625 15.265625 C2.83609375 15.636875 2.0471875 16.008125 1.234375 16.390625 C-1.125 17.265625 -1.125 17.265625 -5.125 17.265625 C-6.75 14.828125 -6.75 14.828125 -8.125 12.265625 C-10.35390995 11.15117002 -11.65555106 11.10082214 -14.125 11.078125 C-14.82625 11.06394531 -15.5275 11.04976563 -16.25 11.03515625 C-18.37024938 11.10050177 -18.37024938 11.10050177 -20.125 13.265625 C-20.43551841 15.55952931 -20.43551841 15.55952931 -20.390625 18.203125 C-20.39320312 19.18023437 -20.39578125 20.15734375 -20.3984375 21.1640625 C-20.39070313 22.18757813 -20.38296875 23.21109375 -20.375 24.265625 C-20.38273437 25.28914063 -20.39046875 26.31265625 -20.3984375 27.3671875 C-20.39585938 28.34429687 -20.39328125 29.32140625 -20.390625 30.328125 C-20.38836914 31.22660156 -20.38611328 32.12507813 -20.38378906 33.05078125 C-20.33308942 35.47104665 -20.33308942 35.47104665 -18.125 37.265625 C-15.68487051 37.50849989 -15.68487051 37.50849989 -13 37.390625 C-12.08992188 37.37257813 -11.17984375 37.35453125 -10.2421875 37.3359375 C-9.54351562 37.31273437 -8.84484375 37.28953125 -8.125 37.265625 C-7.465 35.615625 -6.805 33.965625 -6.125 32.265625 C-9.095 32.265625 -12.065 32.265625 -15.125 32.265625 C-15.15187279 30.45320448 -15.17133715 28.64067267 -15.1875 26.828125 C-15.19910156 25.81878906 -15.21070313 24.80945313 -15.22265625 23.76953125 C-15.125 21.265625 -15.125 21.265625 -14.125 20.265625 C-12.50242456 20.1664593 -10.87560169 20.13482723 -9.25 20.1328125 C-8.26515625 20.13152344 -7.2803125 20.13023437 -6.265625 20.12890625 C-5.22921875 20.13277344 -4.1928125 20.13664062 -3.125 20.140625 C-1.57039063 20.13482422 -1.57039063 20.13482422 0.015625 20.12890625 C1.00046875 20.13019531 1.9853125 20.13148438 3 20.1328125 C3.91007812 20.13394043 4.82015625 20.13506836 5.7578125 20.13623047 C7.875 20.265625 7.875 20.265625 8.875 21.265625 C10.05100418 37.63328969 10.05100418 37.63328969 6.28125 43.71875 C1.84235825 48.60153093 -3.54494782 50.92605365 -10.0078125 51.5390625 C-17.80841281 51.78341865 -23.75888402 51.0194658 -30.125 46.265625 C-36.41449158 39.62752419 -36.36036662 33.22220611 -36.4375 24.578125 C-36.46650391 23.51400391 -36.49550781 22.44988281 -36.52539062 21.35351562 C-36.58395049 14.06056 -35.77709146 8.2906299 -30.74780273 2.74780273 C-22.57171257 -4.66065451 -9.52861831 -4.97449926 0 0 Z " fill="#214F9E" transform="translate(148.125,282.734375)"/>
<path d="M0 0 C2.25801382 2.25801382 3.7548202 4.24041095 5.125 7.125 C5.125 8.445 5.125 9.765 5.125 11.125 C3.52350114 11.79805018 1.91868971 12.46322227 0.3125 13.125 C-0.58082031 13.49625 -1.47414063 13.8675 -2.39453125 14.25 C-4.875 15.125 -4.875 15.125 -7.875 15.125 C-8.92392238 13.48868108 -9.92406703 11.82014137 -10.875 10.125 C-13.39975462 8.86262269 -15.18700466 9.02643596 -18 9.0625 C-18.91007812 9.07152344 -19.82015625 9.08054687 -20.7578125 9.08984375 C-21.80582031 9.10724609 -21.80582031 9.10724609 -22.875 9.125 C-23.79865499 11.89596497 -24.00353885 13.57360673 -24.0078125 16.43359375 C-24.00910156 17.26310547 -24.01039063 18.09261719 -24.01171875 18.94726562 C-24.00785156 19.81029297 -24.00398438 20.67332031 -24 21.5625 C-24.00386719 22.42166016 -24.00773437 23.28082031 -24.01171875 24.16601562 C-24.00978516 25.4122168 -24.00978516 25.4122168 -24.0078125 26.68359375 C-24.00668457 27.43954834 -24.00555664 28.19550293 -24.00439453 28.97436523 C-23.87414453 31.13921854 -23.46914783 33.04371253 -22.875 35.125 C-21.08341511 35.15196365 -19.29171527 35.17137917 -17.5 35.1875 C-16.00339844 35.20490234 -16.00339844 35.20490234 -14.4765625 35.22265625 C-11.89067547 35.30506602 -11.89067547 35.30506602 -9.875 34.125 C-9.22286708 32.10036745 -9.22286708 32.10036745 -8.875 30.125 C-9.51308594 30.13660156 -10.15117187 30.14820313 -10.80859375 30.16015625 C-11.63488281 30.16917969 -12.46117187 30.17820312 -13.3125 30.1875 C-14.54806641 30.20490234 -14.54806641 30.20490234 -15.80859375 30.22265625 C-17.875 30.125 -17.875 30.125 -18.875 29.125 C-19.04296875 27.12890625 -19.04296875 27.12890625 -19.0625 24.6875 C-19.07667969 23.88441406 -19.09085937 23.08132813 -19.10546875 22.25390625 C-18.875 20.125 -18.875 20.125 -16.875 18.125 C-14.75195312 17.88208008 -14.75195312 17.88208008 -12.15625 17.89453125 C-11.22425781 17.89646484 -10.29226563 17.89839844 -9.33203125 17.90039062 C-8.35621094 17.91263672 -7.38039063 17.92488281 -6.375 17.9375 C-5.39917969 17.93814453 -4.42335938 17.93878906 -3.41796875 17.93945312 C3.84430804 17.98465402 3.84430804 17.98465402 6.125 19.125 C6.20652344 21.66732342 6.26573716 24.20699202 6.3125 26.75 C6.33763672 27.46285156 6.36277344 28.17570312 6.38867188 28.91015625 C6.466596 34.57264282 5.38612308 38.61740379 1.4765625 42.953125 C0.90679687 43.42234375 0.33703125 43.8915625 -0.25 44.375 C-0.81460938 44.85453125 -1.37921875 45.3340625 -1.9609375 45.828125 C-8.36705434 50.168596 -15.40594112 49.92148288 -22.875 49.125 C-28.78816268 47.25930852 -33.61937822 44.5510363 -36.875 39.125 C-39.54384094 33.40466683 -39.2428456 27.9600197 -39.25 21.75 C-39.27449219 20.63882812 -39.29898437 19.52765625 -39.32421875 18.3828125 C-39.35058633 10.99989063 -38.73492245 6.18955309 -33.49804688 0.67504883 C-24.15358354 -7.82420962 -10.09016412 -6.58054182 0 0 Z " fill="#204E9E" transform="translate(381.875,284.875)"/>
<path d="M0 0 C1.16273438 -0.03738281 2.32546875 -0.07476562 3.5234375 -0.11328125 C6.625 0.3125 6.625 0.3125 8.20477295 2.06225586 C9.59623086 4.26691744 10.54942745 6.30013735 11.45019531 8.7421875 C11.93519501 10.04373779 11.93519501 10.04373779 12.42999268 11.37158203 C12.76762634 12.30083496 13.10526001 13.23008789 13.453125 14.1875 C13.98302032 15.62971924 13.98302032 15.62971924 14.52362061 17.10107422 C15.26664203 19.13055828 16.00608481 21.16135563 16.7421875 23.19335938 C17.87252093 26.30567401 19.02152457 29.41066204 20.171875 32.515625 C20.89177196 34.48916533 21.61056002 36.46311059 22.328125 38.4375 C22.67385559 39.36675293 23.01958618 40.29600586 23.37579346 41.25341797 C23.68651794 42.12111816 23.99724243 42.98881836 24.31738281 43.8828125 C24.59479309 44.64352051 24.87220337 45.40422852 25.15802002 46.18798828 C25.68536789 48.58714196 25.40297676 50.00803669 24.625 52.3125 C22.52195523 52.4205023 20.41733091 52.49808987 18.3125 52.5625 C17.14074219 52.60890625 15.96898437 52.6553125 14.76171875 52.703125 C11.625 52.3125 11.625 52.3125 9.70703125 50.546875 C8.625 48.3125 8.625 48.3125 8.625 44.3125 C3.015 44.3125 -2.595 44.3125 -8.375 44.3125 C-8.705 46.2925 -9.035 48.2725 -9.375 50.3125 C-11.375 52.3125 -11.375 52.3125 -14.4140625 52.5078125 C-15.59742188 52.48460937 -16.78078125 52.46140625 -18 52.4375 C-19.78277344 52.41042969 -19.78277344 52.41042969 -21.6015625 52.3828125 C-22.97441406 52.34800781 -22.97441406 52.34800781 -24.375 52.3125 C-23.83642213 45.77702826 -22.1418412 40.26942476 -19.8125 34.16015625 C-19.4611499 33.21941757 -19.1097998 32.27867889 -18.74780273 31.30943298 C-18.0087886 29.33553863 -17.26563616 27.36318915 -16.51855469 25.39233398 C-15.37052053 22.36318067 -14.23499272 19.32956619 -13.1015625 16.29492188 C-12.38092457 14.37473105 -11.65959511 12.45479957 -10.9375 10.53515625 C-10.59581787 9.62484146 -10.25413574 8.71452667 -9.90209961 7.77662659 C-9.5850708 6.94163132 -9.26804199 6.10663605 -8.94140625 5.24633789 C-8.66240479 4.50879776 -8.38340332 3.77125763 -8.09594727 3.0113678 C-6.48918236 -0.77487468 -3.81840689 0.08007697 0 0 Z " fill="#224F9F" transform="translate(182.375,280.6875)"/>
<path d="M0 0 C0.66 0 1.32 0 2 0 C2.10138675 6.76256512 2.17145971 13.52493439 2.21972656 20.28808594 C2.23984688 22.58894169 2.26714634 24.88974629 2.30175781 27.19042969 C2.35025612 30.49687317 2.37296478 33.80264085 2.390625 37.109375 C2.41127014 38.13867126 2.43191528 39.16796753 2.45318604 40.22845459 C2.45544437 47.40952201 2.45544437 47.40952201 0.109375 50.45117188 C-0.58671875 50.96228516 -1.2828125 51.47339844 -2 52 C-3.20938441 53.79763423 -3.20938441 53.79763423 -4.140625 55.671875 C-4.48867187 56.33574219 -4.83671875 56.99960937 -5.1953125 57.68359375 C-5.54335937 58.36550781 -5.89140625 59.04742187 -6.25 59.75 C-6.61351562 60.44738281 -6.97703125 61.14476562 -7.3515625 61.86328125 C-8.24106197 63.57205654 -9.12145867 65.28556498 -10 67 C-13.48060814 62.67851099 -15.81929512 57.79747816 -18.37890625 52.8984375 C-19.83872947 49.97995469 -19.83872947 49.97995469 -22 48 C-21.69760249 43.01364827 -19.76657103 38.91763876 -17.578125 34.51171875 C-17.2362616 33.80908401 -16.89439819 33.10644928 -16.54217529 32.38252258 C-15.81949575 30.90078708 -15.09312346 29.42084756 -14.36328125 27.94262695 C-13.26030541 25.70837524 -12.16822031 23.46907544 -11.078125 21.22851562 C-7.56838966 14.04172874 -3.98336896 6.93953056 0 0 Z " fill="#E9955D" transform="translate(248,230)"/>
<path d="M0 0 C1.093125 0.00257813 2.18625 0.00515625 3.3125 0.0078125 C4.405625 0.00523437 5.49875 0.00265625 6.625 0 C9.3125 0.1328125 9.3125 0.1328125 10.3125 1.1328125 C10.41096967 2.69280298 10.44048618 4.25721794 10.44189453 5.8203125 C10.44504669 6.81804687 10.44819885 7.81578125 10.45144653 8.84375 C10.4494223 9.92914063 10.44739807 11.01453125 10.4453125 12.1328125 C10.44626923 13.23882812 10.44722595 14.34484375 10.44821167 15.484375 C10.44889367 17.82812558 10.44703804 20.17187803 10.44287109 22.515625 C10.43752314 26.11723038 10.44281547 29.71871103 10.44921875 33.3203125 C10.44855797 35.59114611 10.44727682 37.86197964 10.4453125 40.1328125 C10.44733673 41.21820313 10.44936096 42.30359375 10.45144653 43.421875 C10.44829437 44.41960937 10.44514221 45.41734375 10.44189453 46.4453125 C10.44070114 47.76982422 10.44070114 47.76982422 10.43948364 49.12109375 C10.3125 51.1328125 10.3125 51.1328125 9.3125 52.1328125 C7.12610547 52.20540196 4.93749611 52.21655033 2.75 52.1953125 C0.95369141 52.18177734 0.95369141 52.18177734 -0.87890625 52.16796875 C-1.80574219 52.15636719 -2.73257812 52.14476562 -3.6875 52.1328125 C-3.71276739 44.88794699 -3.7303318 37.64309276 -3.74243164 30.39819336 C-3.74747356 27.93139217 -3.75430691 25.46459398 -3.76293945 22.99780273 C-3.77501125 19.46076721 -3.78072956 15.92377105 -3.78515625 12.38671875 C-3.79031754 11.27631729 -3.79547882 10.16591583 -3.80079651 9.02186584 C-3.80087204 8.00088303 -3.80094757 6.97990021 -3.80102539 5.92797852 C-3.803246 5.02418961 -3.80546661 4.1204007 -3.80775452 3.18922424 C-3.62311607 0.0318154 -3.19112482 0.15770094 0 0 Z " fill="#1E4C9D" transform="translate(275.6875,280.8671875)"/>
<path d="M0 0 C1 2 1 2 0.53442383 3.76489258 C0.26138428 4.46767334 -0.01165527 5.1704541 -0.29296875 5.89453125 C-0.74119995 7.0712439 -0.74119995 7.0712439 -1.19848633 8.27172852 C-1.6880481 9.5294104 -1.6880481 9.5294104 -2.1875 10.8125 C-6.31142192 21.70755968 -10.02349549 32.47905924 -12 44 C-17.36513131 43.152874 -22.6787385 42.08318169 -28 41 C-26.50797042 35.39600795 -23.72596802 31.16670467 -20.5 26.4375 C-19.96826172 25.64972168 -19.43652344 24.86194336 -18.88867188 24.05029297 C-7.2304448 6.93465388 -7.2304448 6.93465388 0 0 Z " fill="#F6F8FB" transform="translate(279,177)"/>
<path d="M0 0 C0.99 0.33 1.98 0.66 3 1 C1.55210681 4.31716156 0.08996533 7.62784673 -1.375 10.9375 C-1.7875 11.88302734 -2.2 12.82855469 -2.625 13.80273438 C-3.02460938 14.70185547 -3.42421875 15.60097656 -3.8359375 16.52734375 C-4.20251465 17.35999756 -4.5690918 18.19265137 -4.94677734 19.05053711 C-6 21 -6 21 -8 22 C-8.51608349 15.00420156 -8.00829663 9.87702951 -4 4 C-1.75 1.5 -1.75 1.5 0 0 Z " fill="#EB9E6B" transform="translate(148,177)"/>
<path d="M0 0 C0.33 0 0.66 0 1 0 C2.32 5.94 3.64 11.88 5 18 C2.03 18 -0.94 18 -4 18 C-2.68 12.06 -1.36 6.12 0 0 Z " fill="#EBEFF6" transform="translate(182,295)"/>
<path d="M0 0 C1.15941038 3.47823115 0.70820884 5.45895578 0 9 C-0.99 9 -1.98 9 -3 9 C-2.44271087 5.65626525 -1.64826111 2.96687001 0 0 Z " fill="#ECA576" transform="translate(187,222)"/>
</svg>
